<svg width="31" height="31" viewBox="0 0 31 31" fill="none" xmlns="http://www.w3.org/2000/svg">
<mask id="mask0_1661_11931" style="mask-type:luminance" maskUnits="userSpaceOnUse" x="0" y="0" width="31" height="31">
<path d="M10.3346 15.5C10.3346 12.6466 12.6472 10.3329 15.5006 10.3329C18.3541 10.3329 20.6679 12.6466 20.6679 15.5C20.6679 18.3534 18.3541 20.6671 15.5006 20.6671C12.6472 20.6671 10.3346 18.3534 10.3346 15.5ZM7.54122 15.5C7.54122 19.8958 11.1046 23.4591 15.5006 23.4591C19.8966 23.4591 23.46 19.8958 23.46 15.5C23.46 11.1042 19.8966 7.54091 15.5006 7.54091C11.1046 7.54091 7.54122 11.1042 7.54122 15.5ZM21.915 7.2254C21.915 8.25206 22.7476 9.08591 23.7756 9.08591C24.8023 9.08591 25.6361 8.25206 25.6361 7.2254C25.6361 6.19875 24.8035 5.36616 23.7756 5.36616C22.7476 5.36616 21.915 6.19875 21.915 7.2254ZM9.23777 28.1166C7.72652 28.0477 6.90517 27.7961 6.35926 27.5832C5.63557 27.3015 5.11971 26.966 4.57632 26.4239C4.03417 25.8817 3.69736 25.3659 3.4169 24.6422C3.20405 24.0964 2.95238 23.275 2.88352 21.7639C2.80839 20.13 2.79337 19.6392 2.79337 15.5C2.79337 11.3608 2.80965 10.8713 2.88352 9.23615C2.95238 7.72496 3.2053 6.90489 3.4169 6.35775C3.69861 5.63409 4.03417 5.11826 4.57632 4.57488C5.11846 4.03275 5.63432 3.69596 6.35926 3.41551C6.90517 3.20267 7.72652 2.95101 9.23777 2.88215C10.8717 2.80703 11.3625 2.792 15.5006 2.792C19.64 2.792 20.1295 2.80828 21.7647 2.88215C23.276 2.95101 24.0961 3.20392 24.6432 3.41551C25.3669 3.69596 25.8828 4.03275 26.4262 4.57488C26.9683 5.117 27.3039 5.63409 27.5856 6.35775C27.7985 6.90364 28.0501 7.72496 28.119 9.23615C28.1941 10.8713 28.2091 11.3608 28.2091 15.5C28.2091 19.6379 28.1941 20.1287 28.119 21.7639C28.0501 23.275 27.7972 24.0964 27.5856 24.6422C27.3039 25.3659 26.9683 25.8817 26.4262 26.4239C25.884 26.966 25.3669 27.3015 24.6432 27.5832C24.0973 27.7961 23.276 28.0477 21.7647 28.1166C20.1308 28.1917 19.64 28.2067 15.5006 28.2067C11.3625 28.2067 10.8717 28.1917 9.23777 28.1166ZM9.11006 0.0939015C7.45983 0.169023 6.33297 0.430695 5.34759 0.813813C4.32841 1.20945 3.46448 1.74031 2.6018 2.6017C1.74038 3.46309 1.2095 4.32698 0.813845 5.34737C0.430712 6.33271 0.169029 7.45953 0.0939052 9.10969C0.017529 10.7624 0 11.2907 0 15.5C0 19.7093 0.017529 20.2376 0.0939052 21.8903C0.169029 23.5405 0.430712 24.6673 0.813845 25.6526C1.2095 26.6718 1.73913 27.5369 2.6018 28.3983C3.46323 29.2597 4.32715 29.7893 5.34759 30.1862C6.33422 30.5693 7.45983 30.831 9.11006 30.9061C10.764 30.9812 11.2912 31 15.5006 31C19.7113 31 20.2385 30.9825 21.8912 30.9061C23.5414 30.831 24.6683 30.5693 25.6537 30.1862C26.6728 29.7893 27.5368 29.2597 28.3995 28.3983C29.2609 27.5369 29.7905 26.6718 30.1874 25.6526C30.5705 24.6673 30.8335 23.5405 30.9073 21.8903C30.9825 20.2364 31 19.7093 31 15.5C31 11.2907 30.9825 10.7624 30.9073 9.10969C30.8322 7.45953 30.5705 6.33271 30.1874 5.34737C29.7905 4.32823 29.2609 3.46434 28.3995 2.6017C27.538 1.74031 26.6728 1.20945 25.6549 0.813813C24.6683 0.430695 23.5414 0.167771 21.8924 0.0939015C20.2397 0.0187803 19.7113 0 15.5019 0C11.2912 0 10.764 0.0175283 9.11006 0.0939015Z" fill="white"/>
</mask>
<g mask="url(#mask0_1661_11931)">
<mask id="mask1_1661_11931" style="mask-type:luminance" maskUnits="userSpaceOnUse" x="-75" y="-75" width="181" height="181">
<path d="M-74.6846 -74.6816H105.774V105.682H-74.6846V-74.6816Z" fill="white"/>
</mask>
<g mask="url(#mask1_1661_11931)">
<mask id="mask2_1661_11931" style="mask-type:luminance" maskUnits="userSpaceOnUse" x="-75" y="-75" width="181" height="181">
<path d="M-74.6846 -74.6816H105.774V105.682H-74.6846V-74.6816Z" fill="white"/>
</mask>
<g mask="url(#mask2_1661_11931)">
<path d="M-74.6846 -74.6816H105.686V105.682H-74.6846V-74.6816Z" fill="#204BFF"/>
</g>
</g>
</g>
</svg>
