<svg width="19" height="18" viewBox="0 0 19 18" fill="none" xmlns="http://www.w3.org/2000/svg">
<path d="M0 1.2823L0 3.2883C0 3.55431 0.125111 3.80943 0.347811 3.99753C0.57051 4.18563 0.872555 4.2913 1.1875 4.2913C1.50244 4.2913 1.80449 4.18563 2.02719 3.99753C2.24989 3.80943 2.375 3.55431 2.375 3.2883V2.2853L16.625 2.2853V3.2883C16.625 3.55431 16.7501 3.80943 16.9728 3.99753C17.1955 4.18563 17.4976 4.2913 17.8125 4.2913C18.1274 4.2913 18.4295 4.18563 18.6522 3.99753C18.8749 3.80943 19 3.55431 19 3.2883V1.2823C19 1.01629 18.8749 0.76117 18.6522 0.573071C18.4295 0.384971 18.1274 0.279299 17.8125 0.279299H1.1875C0.872555 0.279299 0.57051 0.384971 0.347811 0.573071C0.125111 0.76117 0 1.01629 0 1.2823ZM4.0375 8.50391C3.78554 8.66352 3.61897 8.90113 3.57443 9.16446C3.52989 9.4278 3.61103 9.6953 3.8 9.90811C3.98897 10.1209 4.27028 10.2616 4.58206 10.2992C4.89384 10.3369 5.21054 10.2683 5.4625 10.1087L8.3125 8.30331V16.3273C8.3125 16.5933 8.43761 16.8485 8.66031 17.0366C8.88301 17.2246 9.18506 17.3303 9.5 17.3303C9.81494 17.3303 10.117 17.2246 10.3397 17.0366C10.5624 16.8485 10.6875 16.5933 10.6875 16.3273V8.21304L13.585 9.9382C13.7126 10.0152 13.8571 10.07 14.0099 10.0996C14.1628 10.1292 14.3211 10.1329 14.4756 10.1105C14.6302 10.0881 14.778 10.0401 14.9105 9.96919C15.043 9.8983 15.1575 9.80596 15.2475 9.69748C15.3884 9.52697 15.4631 9.32368 15.4613 9.11574C15.4604 8.95661 15.4147 8.79995 15.328 8.65868C15.2412 8.51741 15.116 8.3956 14.9625 8.30331L10.2125 5.47485C10.0091 5.34932 9.76376 5.28167 9.51188 5.28167C9.25999 5.28167 9.01462 5.34932 8.81125 5.47485L4.0375 8.50391Z" fill="#373867"/>
</svg>
