<svg width="30" height="31" viewBox="0 0 30 31" fill="none" xmlns="http://www.w3.org/2000/svg">
<g clip-path="url(#clip0_1661_11949)">
<path d="M26.25 0H3.75C1.68187 0 0 1.73794 0 3.875V27.125C0 29.2621 1.68187 31 3.75 31H26.25C28.3181 31 30 29.2621 30 27.125V3.875C30 1.73794 28.3181 0 26.25 0Z" fill="#1976D2"/>
<path fill-rule="evenodd" clip-rule="evenodd" d="M22.0625 12.6875H17.375V8.8125C17.375 7.743 18.215 7.84375 19.25 7.84375H21.125V3H17.375C15.8832 3 14.4524 3.61239 13.3975 4.70244C12.3426 5.7925 11.75 7.27093 11.75 8.8125V12.6875H8V17.5312H11.75V28.1875H17.375V17.5312H20.1875L22.0625 12.6875Z" fill="#FAFAFA"/>
</g>
<defs>
<clipPath id="clip0_1661_11949">
<rect width="30" height="31" fill="white"/>
</clipPath>
</defs>
</svg>
