<svg width="14" height="16" viewBox="0 0 14 16" fill="none" xmlns="http://www.w3.org/2000/svg">
<path fill-rule="evenodd" clip-rule="evenodd" d="M0.270242 5.04697L6.57024 0.146965C6.82302 -0.0496394 7.17698 -0.0496394 7.42976 0.146965L13.7298 5.04697C13.9003 5.17958 14 5.3835 14 5.59951V13.2995C14 14.4593 13.0598 15.3995 11.9 15.3995H9.1H4.9H2.1C0.940202 15.3995 0 14.4593 0 13.2995V5.59951C0 5.3835 0.099731 5.17958 0.270242 5.04697ZM5.6 13.9995H8.4V8.39951H5.6V13.9995ZM9.8 13.9995V7.69951C9.8 7.31291 9.4866 6.99951 9.1 6.99951H4.9C4.5134 6.99951 4.2 7.31291 4.2 7.69951V13.9995H2.1C1.7134 13.9995 1.4 13.6861 1.4 13.2995V5.94186L7 1.5863L12.6 5.94186V13.2995C12.6 13.6861 12.2866 13.9995 11.9 13.9995H9.8Z" fill="#373867"/>
</svg>
