<svg width="29" height="31" viewBox="0 0 29 31" fill="none" xmlns="http://www.w3.org/2000/svg">
<g clip-path="url(#clip0_1661_11943)">
<path d="M22.4908 0H6.50918C2.91426 0 0 3.11524 0 6.95809V24.0419C0 27.8848 2.91426 31 6.50918 31H22.4908C26.0857 31 29 27.8848 29 24.0419V6.95809C29 3.11524 26.0857 0 22.4908 0Z" fill="#0B86CA"/>
<path d="M8.03617 12.8856H11.0497V23.2798H8.03617V12.8856ZM9.57306 7.7207C9.91832 7.72071 10.2558 7.83002 10.5431 8.03485C10.8303 8.23968 11.0543 8.53085 11.1869 8.87162C11.3194 9.2124 11.3546 9.58752 11.288 9.94965C11.2214 10.3118 11.0559 10.6447 10.8125 10.9064C10.569 11.1681 10.2585 11.3469 9.92016 11.4202C9.58178 11.4935 9.23067 11.4581 8.91112 11.3183C8.59158 11.1785 8.31792 10.9407 8.12466 10.6349C7.9314 10.3291 7.82721 9.96888 7.82522 9.59982C7.8239 9.35356 7.86813 9.10944 7.95538 8.88152C8.04262 8.6536 8.17115 8.44636 8.33359 8.27173C8.49602 8.09709 8.68915 7.95851 8.90186 7.86394C9.11458 7.76938 9.34268 7.7207 9.57306 7.7207Z" fill="white"/>
<path d="M12.9783 12.8853H15.8813V14.3027C16.1719 13.7726 16.5917 13.3367 17.0959 13.0417C17.6001 12.7467 18.1698 12.6036 18.7442 12.6276C21.7577 12.6276 22.3704 14.7752 22.3704 17.5777V23.2795H19.3569V18.2542C19.3569 17.0516 19.3569 15.4946 17.7899 15.4946C16.2229 15.4946 15.9818 16.8046 15.9818 18.1576V23.301H12.9683L12.9783 12.8853Z" fill="white"/>
</g>
<defs>
<clipPath id="clip0_1661_11943">
<rect width="29" height="31" fill="white"/>
</clipPath>
</defs>
</svg>
