<svg width="18" height="19" viewBox="0 0 18 19" fill="none" xmlns="http://www.w3.org/2000/svg">
<path d="M16.9412 0.509155H14.8235C14.5427 0.509155 14.2734 0.627682 14.0748 0.83866C13.8763 1.04964 13.7647 1.33579 13.7647 1.63416C13.7647 1.93252 13.8763 2.21867 14.0748 2.42965C14.2734 2.64063 14.5427 2.75916 14.8235 2.75916H15.8824V16.2592H14.8235C14.5427 16.2592 14.2734 16.3777 14.0748 16.5887C13.8763 16.7996 13.7647 17.0858 13.7647 17.3842C13.7647 17.6825 13.8763 17.9687 14.0748 18.1797C14.2734 18.3906 14.5427 18.5092 14.8235 18.5092H16.9412C17.222 18.5092 17.4913 18.3906 17.6899 18.1797C17.8884 17.9687 18 17.6825 18 17.3842V1.63416C18 1.33579 17.8884 1.04964 17.6899 0.83866C17.4913 0.627682 17.222 0.509155 16.9412 0.509155ZM9.31765 4.33416C9.14916 4.09546 8.89832 3.93766 8.62033 3.89546C8.34233 3.85327 8.05995 3.93013 7.83529 4.10916C7.61064 4.28818 7.46212 4.55469 7.42241 4.85006C7.38269 5.14543 7.45504 5.44546 7.62353 5.68416L9.52941 8.38416H1.05882C0.778006 8.38416 0.50869 8.50268 0.310122 8.71366C0.111554 8.92464 0 9.21079 0 9.50916C0 9.80752 0.111554 10.0937 0.310122 10.3047C0.50869 10.5156 0.778006 10.6342 1.05882 10.6342H9.62471L7.80353 13.3792C7.72228 13.5001 7.66438 13.6369 7.63316 13.7817C7.60195 13.9265 7.59805 14.0765 7.62167 14.2229C7.6453 14.3694 7.69599 14.5094 7.77082 14.6349C7.84565 14.7604 7.94313 14.8689 8.05765 14.9542C8.23765 15.0877 8.45225 15.1584 8.67176 15.1567C8.83975 15.1558 9.00513 15.1125 9.15426 15.0304C9.30339 14.9482 9.43198 14.8296 9.52941 14.6842L12.5153 10.1842C12.6478 9.99148 12.7192 9.75904 12.7192 9.52041C12.7192 9.28178 12.6478 9.04933 12.5153 8.85666L9.31765 4.33416Z" fill="#373867"/>
</svg>
