<svg width="194" height="41" viewBox="0 0 194 41" fill="none" xmlns="http://www.w3.org/2000/svg">
<path d="M4.56299 7.11719H8.90381L15.2954 25.3862L21.687 7.11719H26.0278L17.0386 32H13.5522L4.56299 7.11719ZM2.22168 7.11719H6.54541L7.33154 24.9248V32H2.22168V7.11719ZM24.0454 7.11719H28.3862V32H23.2593V24.9248L24.0454 7.11719ZM41.084 32.3418C39.6484 32.3418 38.361 32.1139 37.2217 31.6582C36.0824 31.1911 35.1139 30.5474 34.3164 29.7271C33.5303 28.9067 32.9264 27.9554 32.5049 26.873C32.0833 25.7793 31.8726 24.6172 31.8726 23.3867V22.7031C31.8726 21.3018 32.0719 20.02 32.4707 18.8579C32.8695 17.6958 33.4391 16.6875 34.1797 15.833C34.9316 14.9785 35.8431 14.3234 36.9141 13.8677C37.985 13.4006 39.1927 13.167 40.5371 13.167C41.8473 13.167 43.0094 13.3835 44.0234 13.8164C45.0374 14.2493 45.8862 14.8646 46.5698 15.6621C47.2648 16.4596 47.7889 17.4167 48.1421 18.5332C48.4953 19.6383 48.6719 20.8688 48.6719 22.2246V24.2754H33.9746V20.9941H43.8354V20.6182C43.8354 19.9346 43.7101 19.325 43.4595 18.7896C43.2202 18.2427 42.8556 17.8097 42.3657 17.4907C41.8758 17.1717 41.2492 17.0122 40.4858 17.0122C39.8364 17.0122 39.2782 17.1546 38.811 17.4395C38.3439 17.7243 37.9622 18.123 37.666 18.6357C37.3812 19.1484 37.1647 19.7523 37.0166 20.4473C36.8799 21.1309 36.8115 21.8828 36.8115 22.7031V23.3867C36.8115 24.1273 36.9141 24.8109 37.1191 25.4375C37.3356 26.0641 37.6375 26.6053 38.0249 27.061C38.4237 27.5168 38.9022 27.87 39.4604 28.1206C40.0301 28.3713 40.6738 28.4966 41.3916 28.4966C42.2803 28.4966 43.1063 28.3257 43.8696 27.9839C44.6444 27.6307 45.3109 27.1009 45.8691 26.3945L48.2617 28.9922C47.8743 29.5505 47.3446 30.0859 46.6724 30.5986C46.0116 31.1113 45.214 31.5329 44.2798 31.8633C43.3455 32.1823 42.2803 32.3418 41.084 32.3418ZM63.1812 13.5088H67.6416V31.3848C67.6416 33.071 67.2656 34.5008 66.5137 35.6743C65.7731 36.8592 64.7363 37.7536 63.4033 38.3574C62.0703 38.9727 60.5208 39.2803 58.7549 39.2803C57.9801 39.2803 57.1598 39.1777 56.2939 38.9727C55.4395 38.7676 54.6191 38.4486 53.833 38.0156C53.0583 37.5827 52.4089 37.0358 51.8848 36.375L54.0552 33.4697C54.6248 34.1305 55.2856 34.6432 56.0376 35.0078C56.7896 35.3838 57.6213 35.5718 58.5327 35.5718C59.4214 35.5718 60.1733 35.4066 60.7886 35.0762C61.4038 34.7572 61.8766 34.2843 62.207 33.6577C62.5374 33.0425 62.7026 32.2962 62.7026 31.4189V17.7812L63.1812 13.5088ZM50.7397 22.9766V22.6177C50.7397 21.2049 50.9106 19.9232 51.2524 18.7725C51.6056 17.6104 52.1012 16.6134 52.7393 15.7817C53.3887 14.95 54.1748 14.3063 55.0977 13.8506C56.0205 13.3949 57.063 13.167 58.2251 13.167C59.4556 13.167 60.4867 13.3949 61.3184 13.8506C62.1501 14.3063 62.8337 14.9557 63.3691 15.7988C63.9046 16.6305 64.3205 17.616 64.6167 18.7554C64.9243 19.8833 65.1636 21.1195 65.3345 22.4639V23.25C65.1636 24.5374 64.9072 25.7337 64.5654 26.8389C64.2236 27.944 63.7736 28.9124 63.2153 29.7441C62.6571 30.5645 61.9621 31.2025 61.1304 31.6582C60.3101 32.1139 59.3302 32.3418 58.1909 32.3418C57.0516 32.3418 56.0205 32.1082 55.0977 31.6411C54.1862 31.174 53.4058 30.5189 52.7563 29.6758C52.1069 28.8327 51.6056 27.8415 51.2524 26.7021C50.9106 25.5628 50.7397 24.321 50.7397 22.9766ZM55.6616 22.6177V22.9766C55.6616 23.7399 55.7357 24.452 55.8838 25.1128C56.0319 25.7736 56.2598 26.3604 56.5674 26.873C56.8864 27.3743 57.2795 27.7674 57.7466 28.0522C58.2251 28.3257 58.7891 28.4624 59.4385 28.4624C60.3385 28.4624 61.0734 28.2744 61.6431 27.8984C62.2127 27.5111 62.64 26.9813 62.9248 26.3091C63.2096 25.6369 63.3748 24.8621 63.4204 23.9849V21.7461C63.3976 21.0283 63.3008 20.3846 63.1299 19.8149C62.959 19.2339 62.7197 18.7383 62.4121 18.3281C62.1045 17.918 61.7057 17.599 61.2158 17.3711C60.7259 17.1432 60.1449 17.0293 59.4727 17.0293C58.8232 17.0293 58.2593 17.1774 57.7808 17.4736C57.3136 17.7585 56.9206 18.1515 56.6016 18.6528C56.2939 19.1541 56.0604 19.7466 55.9009 20.4302C55.7414 21.1024 55.6616 21.8315 55.6616 22.6177ZM81.4502 27.8301V19.5928C81.4502 19.0003 81.3534 18.4933 81.1597 18.0718C80.966 17.6388 80.6641 17.3027 80.2539 17.0635C79.8551 16.8242 79.3368 16.7046 78.6987 16.7046C78.1519 16.7046 77.679 16.8014 77.2803 16.9951C76.8815 17.1774 76.5739 17.4451 76.3574 17.7983C76.141 18.1401 76.0327 18.5446 76.0327 19.0117H71.1108C71.1108 18.2256 71.2931 17.4793 71.6577 16.7729C72.0223 16.0666 72.5521 15.4456 73.2471 14.9102C73.9421 14.3633 74.7681 13.936 75.7251 13.6284C76.6935 13.3208 77.7759 13.167 78.9722 13.167C80.4077 13.167 81.6838 13.4062 82.8003 13.8848C83.9168 14.3633 84.7941 15.0811 85.4321 16.0381C86.0815 16.9951 86.4062 18.1914 86.4062 19.627V27.5396C86.4062 28.5535 86.4689 29.3853 86.5942 30.0347C86.7196 30.6727 86.9019 31.231 87.1411 31.7095V32H82.168C81.9287 31.4987 81.7464 30.8721 81.6211 30.1201C81.5072 29.3568 81.4502 28.5934 81.4502 27.8301ZM82.0996 20.7378L82.1338 23.5234H79.3823C78.7329 23.5234 78.1689 23.5975 77.6904 23.7456C77.2119 23.8937 76.8188 24.1045 76.5112 24.3779C76.2036 24.64 75.9757 24.9476 75.8276 25.3008C75.6909 25.654 75.6226 26.0413 75.6226 26.4629C75.6226 26.8844 75.7194 27.2661 75.9131 27.6079C76.1068 27.9383 76.3859 28.2004 76.7505 28.394C77.1151 28.5763 77.5423 28.6675 78.0322 28.6675C78.7728 28.6675 79.4165 28.5194 79.9634 28.2231C80.5103 27.9269 80.9318 27.5623 81.228 27.1294C81.5356 26.6965 81.6951 26.2863 81.7065 25.8989L83.0054 27.9839C82.8231 28.451 82.5724 28.9352 82.2534 29.4365C81.9458 29.9378 81.5527 30.4106 81.0742 30.855C80.5957 31.2879 80.0203 31.6468 79.3481 31.9316C78.6759 32.2051 77.8784 32.3418 76.9556 32.3418C75.7821 32.3418 74.7168 32.1082 73.7598 31.6411C72.8141 31.1626 72.0622 30.5075 71.5039 29.6758C70.957 28.8327 70.6836 27.8757 70.6836 26.8047C70.6836 25.8363 70.8659 24.9761 71.2305 24.2241C71.5951 23.4722 72.1305 22.8398 72.8369 22.3271C73.5547 21.8031 74.4491 21.41 75.52 21.1479C76.591 20.8745 77.8328 20.7378 79.2456 20.7378H82.0996Z" fill="#49A37B"/>
<path d="M92.3325 7.11719H100.262C101.846 7.11719 103.253 7.39632 104.483 7.95459C105.714 8.50146 106.677 9.31038 107.372 10.3813C108.078 11.4409 108.431 12.7454 108.431 14.2949C108.431 15.5026 108.169 16.5964 107.645 17.5762C107.121 18.5446 106.42 19.3421 105.543 19.9688C104.666 20.5954 103.686 20.9884 102.604 21.1479L102.074 21.353H92.5547L92.5205 20.4302H101.1C102.524 20.4302 103.709 20.134 104.654 19.5415C105.6 18.9491 106.312 18.1857 106.791 17.2515C107.269 16.3058 107.508 15.3203 107.508 14.2949C107.508 12.9847 107.212 11.8682 106.62 10.9453C106.027 10.0111 105.184 9.29329 104.09 8.79199C103.008 8.29069 101.732 8.04004 100.262 8.04004H93.2554V32H92.3325V7.11719ZM108.5 32L101.681 21.0283L102.757 20.9941L109.474 31.7607V32H108.5ZM113.438 23.1133V22.3955C113.438 21.0397 113.632 19.7979 114.02 18.6699C114.418 17.542 114.971 16.5679 115.677 15.7476C116.395 14.9272 117.25 14.2949 118.241 13.8506C119.232 13.3949 120.326 13.167 121.522 13.167C122.73 13.167 123.829 13.3949 124.82 13.8506C125.812 14.2949 126.666 14.9272 127.384 15.7476C128.102 16.5679 128.654 17.542 129.042 18.6699C129.429 19.7979 129.623 21.0397 129.623 22.3955V23.1133C129.623 24.4691 129.429 25.7109 129.042 26.8389C128.654 27.9668 128.102 28.9409 127.384 29.7612C126.677 30.5815 125.829 31.2196 124.837 31.6753C123.846 32.1196 122.752 32.3418 121.556 32.3418C120.348 32.3418 119.249 32.1196 118.258 31.6753C117.267 31.2196 116.412 30.5815 115.694 29.7612C114.977 28.9409 114.418 27.9668 114.02 26.8389C113.632 25.7109 113.438 24.4691 113.438 23.1133ZM114.361 22.3955V23.1133C114.361 24.2184 114.521 25.2723 114.84 26.2749C115.17 27.2661 115.643 28.1491 116.258 28.9238C116.874 29.6986 117.625 30.3081 118.514 30.7524C119.403 31.1968 120.417 31.4189 121.556 31.4189C122.684 31.4189 123.687 31.1968 124.564 30.7524C125.453 30.3081 126.205 29.6986 126.82 28.9238C127.435 28.1491 127.902 27.2661 128.221 26.2749C128.54 25.2723 128.7 24.2184 128.7 23.1133V22.3955C128.7 21.3132 128.54 20.2764 128.221 19.2852C127.902 18.2939 127.429 17.411 126.803 16.6362C126.188 15.8501 125.436 15.2292 124.547 14.7734C123.658 14.3177 122.65 14.0898 121.522 14.0898C120.394 14.0898 119.386 14.3177 118.497 14.7734C117.62 15.2292 116.868 15.8501 116.241 16.6362C115.626 17.411 115.159 18.2939 114.84 19.2852C114.521 20.2764 114.361 21.3132 114.361 22.3955ZM140.389 31.4189C141.358 31.4189 142.275 31.248 143.141 30.9062C144.018 30.5531 144.747 30.0062 145.328 29.2656C145.921 28.5251 146.251 27.568 146.319 26.3945H147.242C147.185 27.6478 146.838 28.7188 146.2 29.6074C145.562 30.4961 144.736 31.174 143.722 31.6411C142.708 32.1082 141.597 32.3418 140.389 32.3418C139.193 32.3418 138.122 32.1196 137.176 31.6753C136.242 31.2196 135.45 30.5815 134.801 29.7612C134.163 28.9409 133.673 27.9668 133.331 26.8389C133.001 25.7109 132.835 24.4691 132.835 23.1133V22.3955C132.835 21.0397 133.001 19.7979 133.331 18.6699C133.673 17.542 134.163 16.5679 134.801 15.7476C135.45 14.9272 136.236 14.2949 137.159 13.8506C138.093 13.3949 139.159 13.167 140.355 13.167C141.551 13.167 142.656 13.4119 143.67 13.9019C144.696 14.3804 145.533 15.0981 146.183 16.0552C146.832 17.0122 147.185 18.1971 147.242 19.6099H146.319C146.262 18.3794 145.949 17.3597 145.379 16.5508C144.821 15.7305 144.098 15.1152 143.209 14.7051C142.32 14.2949 141.369 14.0898 140.355 14.0898C139.227 14.0898 138.247 14.3063 137.416 14.7393C136.584 15.1608 135.895 15.7533 135.348 16.5166C134.812 17.2799 134.413 18.1629 134.151 19.1655C133.889 20.1681 133.758 21.2448 133.758 22.3955V23.1133C133.758 24.2754 133.889 25.3577 134.151 26.3604C134.413 27.363 134.812 28.2459 135.348 29.0093C135.895 29.7612 136.584 30.3537 137.416 30.7866C138.259 31.2082 139.25 31.4189 140.389 31.4189ZM152.813 5.75V32H151.891V5.75H152.813ZM164.708 13.5088L155.497 22.0366L152.643 24.4805L152.301 23.814L154.984 21.2847L163.392 13.5088H164.708ZM164.042 32L155.206 21.6094L155.804 20.8916L165.238 32H164.042ZM174.774 32.3418C173.646 32.3418 172.592 32.1196 171.612 31.6753C170.632 31.2196 169.772 30.5815 169.032 29.7612C168.291 28.9409 167.71 27.9725 167.289 26.856C166.878 25.728 166.673 24.4919 166.673 23.1475V22.3955C166.673 21.0397 166.873 19.8035 167.271 18.687C167.682 17.5591 168.24 16.585 168.946 15.7646C169.664 14.9329 170.49 14.2949 171.424 13.8506C172.359 13.3949 173.361 13.167 174.432 13.167C175.458 13.167 176.397 13.3607 177.252 13.748C178.106 14.124 178.847 14.6595 179.474 15.3545C180.112 16.0495 180.602 16.8812 180.943 17.8496C181.285 18.818 181.456 19.889 181.456 21.0625V22.1392H167.271V21.2163H180.533V20.9941C180.533 19.7523 180.283 18.613 179.781 17.5762C179.28 16.528 178.574 15.6849 177.662 15.0469C176.751 14.4089 175.674 14.0898 174.432 14.0898C173.407 14.0898 172.472 14.3063 171.629 14.7393C170.798 15.1722 170.08 15.7703 169.476 16.5337C168.872 17.2856 168.405 18.1629 168.075 19.1655C167.756 20.1681 167.596 21.2448 167.596 22.3955V23.1475C167.596 24.2982 167.778 25.3748 168.143 26.3774C168.508 27.38 169.015 28.263 169.664 29.0264C170.313 29.7783 171.071 30.3708 171.937 30.8037C172.814 31.2253 173.76 31.436 174.774 31.436C175.833 31.436 176.819 31.2594 177.73 30.9062C178.653 30.5531 179.496 29.8809 180.26 28.8896L180.909 29.3511C180.499 29.9321 180.003 30.4505 179.422 30.9062C178.853 31.3506 178.181 31.7038 177.406 31.9658C176.642 32.2165 175.765 32.3418 174.774 32.3418ZM192.035 13.5088V14.4487H183.473V13.5088H192.035ZM186.891 8.51855H187.831V27.5737C187.831 28.6561 187.956 29.4764 188.207 30.0347C188.469 30.5815 188.81 30.9518 189.232 31.1455C189.665 31.3278 190.126 31.4189 190.616 31.4189C190.969 31.4189 191.283 31.4076 191.556 31.3848C191.83 31.3506 192.126 31.3107 192.445 31.2651L192.599 32.1367C192.348 32.2165 192.023 32.2677 191.625 32.2905C191.226 32.3247 190.907 32.3418 190.667 32.3418C189.881 32.3418 189.203 32.2051 188.634 31.9316C188.076 31.6468 187.643 31.1569 187.335 30.4619C187.039 29.7669 186.891 28.8042 186.891 27.5737V8.51855Z" fill="#AACE9B"/>
</svg>
