<svg width="14" height="12" viewBox="0 0 14 12" fill="none" xmlns="http://www.w3.org/2000/svg">
<path fill-rule="evenodd" clip-rule="evenodd" d="M1.90908 -0.000488281H12.0908C13.1372 -0.000488281 13.9916 0.848913 13.9998 1.89343C14 1.90222 14.0001 1.91101 13.9999 1.91979V9.54489C13.9999 10.5963 13.1423 11.454 12.0908 11.454H1.90908C0.85763 11.454 0 10.5963 0 9.54489V1.90859C0 0.857142 0.85763 -0.000488281 1.90908 -0.000488281ZM12.6593 1.62482C12.5541 1.41667 12.3376 1.27223 12.0907 1.27223H1.90899C1.66213 1.27223 1.44574 1.41661 1.34048 1.62468L7 5.58634L12.6593 1.62482ZM1.27263 3.13073L6.63507 6.88444C6.85418 7.03782 7.14582 7.03782 7.36493 6.88444L12.7271 3.13093V9.54489C12.7271 9.89344 12.4393 10.1813 12.0907 10.1813H1.90899C1.56045 10.1813 1.27263 9.89344 1.27263 9.54489V3.13073Z" fill="#373867"/>
<mask id="mask0_2371_1483" style="mask-type:luminance" maskUnits="userSpaceOnUse" x="0" y="-1" width="14" height="13">
<path fill-rule="evenodd" clip-rule="evenodd" d="M1.90908 -0.000488281H12.0908C13.1372 -0.000488281 13.9916 0.848913 13.9998 1.89343C14 1.90222 14.0001 1.91101 13.9999 1.91979V9.54489C13.9999 10.5963 13.1423 11.454 12.0908 11.454H1.90908C0.85763 11.454 0 10.5963 0 9.54489V1.90859C0 0.857142 0.85763 -0.000488281 1.90908 -0.000488281ZM12.6593 1.62482C12.5541 1.41667 12.3376 1.27223 12.0907 1.27223H1.90899C1.66213 1.27223 1.44574 1.41661 1.34048 1.62468L7 5.58634L12.6593 1.62482ZM1.27263 3.13073L6.63507 6.88444C6.85418 7.03782 7.14582 7.03782 7.36493 6.88444L12.7271 3.13093V9.54489C12.7271 9.89344 12.4393 10.1813 12.0907 10.1813H1.90899C1.56045 10.1813 1.27263 9.89344 1.27263 9.54489V3.13073Z" fill="white"/>
</mask>
<g mask="url(#mask0_2371_1483)">
<rect x="-0.63623" y="-1.90967" width="15.2726" height="15.2726" fill="#373867"/>
</g>
</svg>
