<svg width="25" height="24" viewBox="0 0 25 24" fill="none" xmlns="http://www.w3.org/2000/svg">
<path d="M7.63978 8.67348C9.14611 12.7828 10.7056 14.4223 14.6728 16.1687L12.9535 18.5832C8.39789 16.4022 6.12884 12.7257 5.06019 9.85664L7.63978 8.67348Z" fill="#373867"/>
<path d="M8.9037 3.00017C9.70918 2.99702 10.3216 3.66726 10.2667 4.42619C10.1803 5.6205 10.2723 6.48217 10.52 7.55025C10.6561 8.13695 10.3482 8.73282 9.85908 9.11663C9.19975 9.63394 8.69604 10.2931 8.29569 10.8605C7.74081 11.647 5.83122 11.5905 5.40891 10.7337C4.54101 8.97285 3.95284 5.72876 5.22022 3.53698C5.4193 3.19271 5.82014 3.01223 6.23549 3.01061L8.9037 3.00017Z" fill="#373867"/>
<path d="M21.1302 16.0305C21.2304 15.2757 20.5995 14.6209 19.7952 14.5811C18.5293 14.5185 17.6346 14.3286 16.5417 13.9679C15.9413 13.7698 15.2779 13.9867 14.8156 14.3992C14.1926 14.9551 13.4391 15.3481 12.7945 15.6552C11.901 16.0809 11.7308 17.878 12.5806 18.377C14.3272 19.4025 17.6666 20.344 20.123 19.4194C20.5088 19.2741 20.7467 18.92 20.7984 18.5308L21.1302 16.0305Z" fill="#373867"/>
</svg>
